<mxfile host="drawio-plugin" modified="2024-09-07T14:08:30.529Z" agent="5.0 (Windows NT 6.2; Win64; x64) AppleWebKit/537.36 (KHTML, like Gecko) Chrome/104.0.5112.102 Safari/537.36" version="20.5.3" etag="kJ5VsCHCAtdFSSVmsYDA" type="embed"><diagram id="j-mSVz4Y9RyfdG1uPcG9" name="Страница 1"><mxGraphModel dx="983" dy="773" grid="1" gridSize="10" guides="1" tooltips="1" connect="1" arrows="1" fold="1" page="1" pageScale="1" pageWidth="827" pageHeight="1169" math="0" shadow="0"><root><mxCell id="0"/><mxCell id="1" parent="0"/><mxCell id="2" value="&lt;h1&gt;Template Method&lt;/h1&gt;&lt;p&gt;Диаграмма классов паттерна &quot;Шаблонный метод&quot;&lt;/p&gt;" style="text;html=1;strokeColor=none;fillColor=none;spacing=5;spacingTop=-20;whiteSpace=wrap;overflow=hidden;rounded=0;" parent="1" vertex="1"><mxGeometry x="40" y="40" width="320" height="80" as="geometry"/></mxCell><mxCell id="3" value="AbstractClass" style="swimlane;fontStyle=0;childLayout=stackLayout;horizontal=1;startSize=26;fillColor=none;horizontalStack=0;resizeParent=1;resizeParentMax=0;resizeLast=0;collapsible=1;marginBottom=0;" parent="1" vertex="1"><mxGeometry x="280" y="240" width="160" height="104" as="geometry"/></mxCell><mxCell id="4" value="+ TemplateMethod()" style="text;strokeColor=none;fillColor=none;align=left;verticalAlign=top;spacingLeft=4;spacingRight=4;overflow=hidden;rotatable=0;points=[[0,0.5],[1,0.5]];portConstraint=eastwest;" parent="3" vertex="1"><mxGeometry y="26" width="160" height="26" as="geometry"/></mxCell><mxCell id="5" value="# PrimitiveOperation1()" style="text;strokeColor=none;fillColor=none;align=left;verticalAlign=top;spacingLeft=4;spacingRight=4;overflow=hidden;rotatable=0;points=[[0,0.5],[1,0.5]];portConstraint=eastwest;" parent="3" vertex="1"><mxGeometry y="52" width="160" height="26" as="geometry"/></mxCell><mxCell id="6" value="# PrimitiveOperation2()" style="text;strokeColor=none;fillColor=none;align=left;verticalAlign=top;spacingLeft=4;spacingRight=4;overflow=hidden;rotatable=0;points=[[0,0.5],[1,0.5]];portConstraint=eastwest;" parent="3" vertex="1"><mxGeometry y="78" width="160" height="26" as="geometry"/></mxCell><mxCell id="7" value="ConcreteClass" style="swimlane;fontStyle=0;childLayout=stackLayout;horizontal=1;startSize=26;fillColor=none;horizontalStack=0;resizeParent=1;resizeParentMax=0;resizeLast=0;collapsible=1;marginBottom=0;" parent="1" vertex="1"><mxGeometry x="480" y="240" width="160" height="104" as="geometry"/></mxCell><mxCell id="8" value="+ TemplateMethod()" style="text;strokeColor=none;fillColor=none;align=left;verticalAlign=top;spacingLeft=4;spacingRight=4;overflow=hidden;rotatable=0;points=[[0,0.5],[1,0.5]];portConstraint=eastwest;" parent="7" vertex="1"><mxGeometry y="26" width="160" height="26" as="geometry"/></mxCell><mxCell id="9" value="# PrimitiveOperation1()" style="text;strokeColor=none;fillColor=none;align=left;verticalAlign=top;spacingLeft=4;spacingRight=4;overflow=hidden;rotatable=0;points=[[0,0.5],[1,0.5]];portConstraint=eastwest;" parent="7" vertex="1"><mxGeometry y="52" width="160" height="26" as="geometry"/></mxCell><mxCell id="10" value="# PrimitiveOperation2()" style="text;strokeColor=none;fillColor=none;align=left;verticalAlign=top;spacingLeft=4;spacingRight=4;overflow=hidden;rotatable=0;points=[[0,0.5],[1,0.5]];portConstraint=eastwest;" parent="7" vertex="1"><mxGeometry y="78" width="160" height="26" as="geometry"/></mxCell><mxCell id="11" value="Extends" style="endArrow=block;endSize=16;endFill=0;html=1;exitX=0.5;exitY=0;exitDx=0;exitDy=0;entryX=0.5;entryY=0;entryDx=0;entryDy=0;" parent="1" source="7" target="3" edge="1"><mxGeometry width="160" relative="1" as="geometry"><mxPoint x="480" y="370" as="sourcePoint"/><mxPoint x="640" y="370" as="targetPoint"/><Array as="points"><mxPoint x="560" y="200"/><mxPoint x="360" y="200"/></Array></mxGeometry></mxCell><mxCell id="14" value="" style="edgeStyle=none;html=1;endArrow=none;endFill=0;exitX=0;exitY=0;exitDx=200;exitDy=102.5;exitPerimeter=0;" parent="1" edge="1" source="12"><mxGeometry relative="1" as="geometry"><mxPoint x="240" y="180" as="sourcePoint"/><mxPoint x="310" y="240" as="targetPoint"/><Array as="points"><mxPoint x="260" y="293"/><mxPoint x="260" y="180"/><mxPoint x="310" y="180"/></Array></mxGeometry></mxCell><mxCell id="12" value="void TemplateMethod() {&lt;br&gt;&lt;br&gt;PrimitiveOperation();&lt;br&gt;&lt;br&gt;...&lt;br&gt;&lt;br&gt;PrimitiveOperation();&lt;br&gt;&lt;br&gt;}" style="shape=note2;boundedLbl=1;whiteSpace=wrap;html=1;size=25;verticalAlign=top;align=center;" parent="1" vertex="1"><mxGeometry x="40" y="190" width="200" height="180" as="geometry"/></mxCell></root></mxGraphModel></diagram></mxfile>